<svg xmlns="http://www.w3.org/2000/svg" width="38.379" height="57.521" viewBox="0 0 38.379 57.521"><defs><style>.a{fill:#aec700}</style></defs><path class="a" d="M34.265 25.808a4.118 4.118 0 0 0-3.9 2.8 2.8 2.8 0 0 0-1.844 2.629v8.916c-1.064-.689-1.424-.8-6.068-2.821v-2.274a12.39 12.39 0 0 0 6.98-11.134V21.8a3.356 3.356 0 0 0 1.044-2.432v-.286a1.181 1.181 0 0 0 .642-1.05v-3.653a2.023 2.023 0 0 0-1.941-2.019v-.26A12.1 12.1 0 0 0 8.261 3.81a.843.843 0 1 0 1.227 1.155 10.64 10.64 0 0 1 1.193-1.09l1.031 5.49a.843.843 0 1 0 1.656-.311l-1.159-6.171a10.448 10.448 0 0 1 9.731.009l-1.157 6.162a.843.843 0 1 0 1.656.311l1.03-5.483a10.407 10.407 0 0 1 4.03 8.218v.254h-2.7a.843.843 0 0 0 0 1.685h4.3a.336.336 0 0 1 .335.336v3.149H4.716v-3.145a.336.336 0 0 1 .336-.336h4.3a.843.843 0 0 0 0-1.685H6.657V12.1a10.319 10.319 0 0 1 1.042-4.54.843.843 0 1 0-1.516-.736A11.99 11.99 0 0 0 4.972 12.1v.255a2.023 2.023 0 0 0-1.941 2.019v3.655a1.181 1.181 0 0 0 .642 1.05v.286A3.36 3.36 0 0 0 4.718 21.8v2.123a12.374 12.374 0 0 0 6.981 11.127v2.287l-2.189.951c-.973.422-1.577.684-1.988.867l-.1.041q-.248.108-.49.226c-.229.109-.379.191-.608.317l-.02.011-.072.041A12.351 12.351 0 0 0-.001 50.525v5.731a1.267 1.267 0 0 0 1.265 1.265h36.272a.843.843 0 0 0 .843-.843V29.922a4.119 4.119 0 0 0-4.114-4.114zm0 1.685a2.43 2.43 0 0 1 .843 4.707v-2.912a.843.843 0 0 0-.843-.843h-1.93a2.432 2.432 0 0 1 1.93-.953zm-3.734 2.963a1.1 1.1 0 0 1 .64-.316.992.992 0 0 1 .145-.01h2.106v2.22h-2.106a1.117 1.117 0 0 1-1.109-1.081v-.029a1.105 1.105 0 0 1 .325-.785zM19.723 45l-.041-.025-1.333-.825 3.907-4.645a.842.842 0 0 0 .173-.341l.939.408 2.444 1.064c.235.1.406.18.543.244l-3.506 6.053zm-8.424 1.933l-3.505-6.052c.111-.052.244-.112.415-.188l3.514-1.529a.844.844 0 0 0 .173.341l3.903 4.645zm17.494-27.72v.156a1.659 1.659 0 0 1-1.827 1.655 94.619 94.619 0 0 0-19.78 0 1.66 1.66 0 0 1-1.828-1.655v-.156zM6.399 23.924v-1.263a3.341 3.341 0 0 0 .959.039 92.965 92.965 0 0 1 19.427 0 3.277 3.277 0 0 0 .347.018 3.361 3.361 0 0 0 .613-.057v1.263a10.7 10.7 0 0 1-6.4 9.787.84.84 0 0 0-.136.058 10.685 10.685 0 0 1-14.81-9.845zm10.677 12.358a12.4 12.4 0 0 0 3.693-.558v2.932l-3.693 4.39-3.692-4.39v-2.938a12.314 12.314 0 0 0 3.692.563zM1.685 50.525a10.667 10.667 0 0 1 4.646-8.808l3.945 6.81a.842.842 0 0 0 1.172.294l2.333-1.442-1.3 8.456H1.685zm12.5 5.31l1.483-9.62 1.41-.871 1.41.872 1.484 9.62zm22.511 0h-2.544v-5.31a12.28 12.28 0 0 0-1.16-5.225.843.843 0 1 0-1.527.713 10.607 10.607 0 0 1 1 4.516v5.31h-10.79l-1.3-8.454 2.33 1.441a.843.843 0 0 0 1.173-.294l3.947-6.813a10.6 10.6 0 0 1 1.861 1.62.843.843 0 1 0 1.241-1.139q-.346-.38-.72-.728v-7.66a2.865 2.865 0 0 0 1.109.225c2.243-.14 3.73.413 5.378-.8zm0 0"/><path class="a" d="M30.274 52.581h-6.145a.843.843 0 1 0 0 1.685h6.145a.843.843 0 1 0 0-1.685zm-9.722-39.38a3.477 3.477 0 1 0-3.477 3.477 3.48 3.48 0 0 0 3.477-3.477zm-5.268 0a1.791 1.791 0 1 1 1.791 1.791 1.793 1.793 0 0 1-1.79-1.791zm0 0"/></svg>