<?xml version="1.0" encoding="UTF-8"?>
<!DOCTYPE svg PUBLIC "-//W3C//DTD SVG 1.1//EN" "http://www.w3.org/Graphics/SVG/1.1/DTD/svg11.dtd">
<!-- Creator: CorelDRAW 2018 (64 Bit Versão de avaliação) -->
<svg xmlns="http://www.w3.org/2000/svg" xml:space="preserve" width="185px" height="200px" version="1.1" style="shape-rendering:geometricPrecision; text-rendering:geometricPrecision; image-rendering:optimizeQuality; fill-rule:evenodd; clip-rule:evenodd"
viewBox="0 0 62.22 67.21"
 xmlns:xlink="http://www.w3.org/1999/xlink">
 <defs>
  <style type="text/css">
   <![CDATA[
    .str0 {stroke:#657788;stroke-width:1.99;stroke-miterlimit:22.9256}
    .fil0 {fill:none}
   ]]>
  </style>
 </defs>
 <g id="Camada_x0020_1">
  <metadata id="CorelCorpID_0Corel-Layer"/>
  <path class="fil0 str0" d="M0.99 29.93l0 0c0.03,-2.39 2,-4.33 4.39,-4.3l27.83 0.26c0.53,0.01 1.05,0.11 1.52,0.3 -1.29,1.05 -2.12,2.66 -2.12,4.46 0,1.47 0.56,2.82 1.48,3.84 -0.31,0.07 -0.64,0.1 -0.97,0.1l-27.82 -0.27c-2.39,-0.02 -4.33,-1.99 -4.31,-4.39zm53.1 35.88l0 0c-2.17,1.01 -4.77,0.06 -5.77,-2.11l-11.74 -25.23c-0.38,-0.8 -0.48,-1.67 -0.36,-2.49 0.66,0.26 1.38,0.41 2.13,0.41 2.18,0 4.07,-1.22 5.04,-3.01 0.44,0.39 0.81,0.87 1.07,1.43l11.74 25.22c1.01,2.17 0.06,4.77 -2.11,5.78zm5.36 -63.98l0 0c1.93,1.41 2.35,4.15 0.94,6.08l-16.32 22.26c-0.25,-2.95 -2.71,-5.26 -5.72,-5.26 -0.46,0 -0.9,0.05 -1.32,0.15l16.34 -22.3c1.42,-1.92 4.15,-2.34 6.08,-0.93z"/>
 </g>
</svg>
