<?xml version="1.0" encoding="UTF-8" standalone="no"?>
<svg xmlns:dc="http://purl.org/dc/elements/1.1/" xmlns:cc="http://creativecommons.org/ns#" xmlns:rdf="http://www.w3.org/1999/02/22-rdf-syntax-ns#" xmlns:svg="http://www.w3.org/2000/svg" xmlns="http://www.w3.org/2000/svg" xmlns:sodipodi="http://sodipodi.sourceforge.net/DTD/sodipodi-0.dtd" xmlns:inkscape="http://www.inkscape.org/namespaces/inkscape" width="32" height="32" viewBox="0 0 32 32.000001" id="svg4050" version="1.1" inkscape:version="0.91 r13725" sodipodi:docname="20.svg">
  <defs id="defs4052"/>
  <sodipodi:namedview id="base" pagecolor="#ffffff" bordercolor="#666666" borderopacity="1.0" inkscape:pageopacity="0.0" inkscape:pageshadow="2" inkscape:zoom="11.844039" inkscape:cx="14.771451" inkscape:cy="8.3981912" inkscape:document-units="px" inkscape:current-layer="layer1" showgrid="true" units="px" inkscape:snap-bbox="true" inkscape:bbox-paths="true" inkscape:bbox-nodes="true" inkscape:snap-bbox-edge-midpoints="true" inkscape:snap-bbox-midpoints="true" inkscape:window-width="1366" inkscape:window-height="705" inkscape:window-x="-8" inkscape:window-y="-8" inkscape:window-maximized="1">
    <inkscape:grid type="xygrid" id="grid4058"/>
  </sodipodi:namedview>
  
  <g inkscape:label="Layer 1" inkscape:groupmode="layer" id="layer1" transform="translate(0,-1020.3622)">
    <path style="color:#000000;font-style:normal;font-variant:normal;font-weight:normal;font-stretch:normal;font-size:medium;line-height:normal;font-family:sans-serif;text-indent:0;text-align:start;text-decoration:none;text-decoration-line:none;text-decoration-style:solid;text-decoration-color:#000000;letter-spacing:normal;word-spacing:normal;text-transform:none;direction:ltr;block-progression:tb;writing-mode:lr-tb;baseline-shift:baseline;text-anchor:start;white-space:normal;clip-rule:nonzero;display:inline;overflow:visible;visibility:visible;opacity:1;isolation:auto;mix-blend-mode:normal;color-interpolation:sRGB;color-interpolation-filters:linearRGB;solid-color:#000000;solid-opacity:1;fill:#000000;fill-opacity:1;fill-rule:nonzero;stroke:none;stroke-width:1;stroke-linecap:round;stroke-linejoin:round;stroke-miterlimit:4;stroke-dasharray:none;stroke-dashoffset:0;stroke-opacity:1;color-rendering:auto;image-rendering:auto;shape-rendering:auto;text-rendering:auto;enable-background:accumulate" d="M 10.496094 1.9980469 A 0.50005 0.50005 0 0 0 10.421875 2.0039062 L 6.0019531 2.0039062 C 5.4477415 2.0039062 4.9645169 2.2560344 4.640625 2.6152344 C 4.3167331 2.9743344 4.1259566 3.4234187 4.015625 3.8867188 L 2.015625 12.287109 A 0.50005 0.50005 0 0 0 2.0039062 12.458984 A 0.50005006 0.50005006 0 0 0 2.0019531 12.503906 C 2.0019578 13.949406 2.760548 15.287772 3.9980469 16.013672 C 3.9993148 16.014416 4.0006846 16.014883 4.0019531 16.015625 L 4.0019531 29.503906 A 0.50005 0.50005 0 0 0 4.5019531 30.003906 L 28.501953 30.003906 A 0.50005 0.50005 0 0 0 29.001953 29.503906 L 29.001953 16.015625 C 29.002714 16.015179 29.003145 16.014118 29.003906 16.013672 C 30.241406 15.287772 31.001953 13.949406 31.001953 12.503906 A 0.50005006 0.50005006 0 0 0 31 12.464844 A 0.50005 0.50005 0 0 0 31 12.460938 A 0.50005006 0.50005006 0 0 0 31 12.453125 A 0.50005 0.50005 0 0 0 30.988281 12.287109 L 28.988281 3.8867188 C 28.877949 3.4234187 28.687173 2.9743344 28.363281 2.6152344 C 28.03939 2.2560344 27.556165 2.0039062 27.001953 2.0039062 L 22.582031 2.0039062 A 0.50005 0.50005 0 0 0 22.492188 1.9980469 A 0.50005 0.50005 0 0 0 22.421875 2.0039062 L 16.582031 2.0039062 A 0.50005 0.50005 0 0 0 16.494141 1.9980469 A 0.50005 0.50005 0 0 0 16.417969 2.0039062 L 10.580078 2.0039062 A 0.50005 0.50005 0 0 0 10.496094 1.9980469 z M 6.0019531 3.0039062 L 9.9492188 3.0039062 L 9.0390625 12.003906 L 6.0019531 12.003906 L 3.1113281 12.003906 L 4.9882812 4.1191406 C 5.0704262 3.7741406 5.2125672 3.4739562 5.3828125 3.2851562 C 5.5530578 3.0963562 5.7251551 3.0039062 6.0019531 3.0039062 z M 10.955078 3.0039062 L 16.001953 3.0039062 L 16.001953 12.003906 L 13.001953 12.003906 L 10.046875 12.003906 L 10.955078 3.0039062 z M 17.001953 3.0039062 L 22.048828 3.0039062 L 22.957031 12.003906 L 20.001953 12.003906 L 17.001953 12.003906 L 17.001953 3.0039062 z M 23.054688 3.0039062 L 27.001953 3.0039062 C 27.278751 3.0039062 27.448895 3.0968562 27.619141 3.2851562 C 27.789386 3.4739563 27.93348 3.7741406 28.015625 4.1191406 L 29.892578 12.003906 L 27.001953 12.003906 L 23.964844 12.003906 L 23.054688 3.0039062 z M 3.1328125 13.003906 L 6.0019531 13.003906 L 8.8691406 13.003906 C 8.7168677 13.888006 8.27455 14.696844 7.4980469 15.152344 C 6.5697402 15.696844 5.432213 15.696844 4.5039062 15.152344 C 3.7273048 14.696744 3.2850092 13.888206 3.1328125 13.003906 z M 10.132812 13.003906 L 13.001953 13.003906 L 15.869141 13.003906 C 15.71687 13.888006 15.27455 14.696844 14.498047 15.152344 C 13.569744 15.696844 12.432209 15.696844 11.503906 15.152344 C 10.727305 14.696744 10.285007 13.888206 10.132812 13.003906 z M 17.132812 13.003906 L 20.001953 13.003906 L 22.869141 13.003906 C 22.71687 13.888006 22.27455 14.696844 21.498047 15.152344 C 20.569743 15.696844 19.43221 15.696844 18.503906 15.152344 C 17.727305 14.696744 17.285007 13.888206 17.132812 13.003906 z M 24.132812 13.003906 L 27.001953 13.003906 L 29.869141 13.003906 C 29.71687 13.888006 29.27455 14.696844 28.498047 15.152344 C 27.569743 15.696844 26.43221 15.696844 25.503906 15.152344 C 24.727305 14.696744 24.285008 13.888206 24.132812 13.003906 z M 9.5 14.457031 C 9.8451615 15.092735 10.356058 15.63709 10.998047 16.013672 C 12.235546 16.739572 13.766407 16.739572 15.003906 16.013672 C 15.645643 15.637238 16.154337 15.092411 16.5 14.457031 C 16.845162 15.092735 17.356059 15.63709 17.998047 16.013672 C 19.235547 16.739572 20.766407 16.739572 22.003906 16.013672 C 22.645643 15.637238 23.154337 15.092411 23.5 14.457031 C 23.845162 15.092735 24.356059 15.63709 24.998047 16.013672 C 25.917851 16.553216 26.998936 16.69025 28.001953 16.427734 L 28.001953 29.003906 L 5.0019531 29.003906 L 5.0019531 16.427734 C 6.0044465 16.689591 7.0846705 16.552881 8.0039062 16.013672 C 8.6456422 15.637238 9.154337 15.092411 9.5 14.457031 z M 23.091797 21.003906 C 22.930278 20.999169 22.769104 21.008272 22.609375 21.029297 C 21.970458 21.113297 21.358195 21.401559 20.878906 21.880859 C 19.920282 22.839359 19.724505 24.329906 20.402344 25.503906 C 21.080179 26.677906 22.467923 27.251291 23.777344 26.900391 C 25.086771 26.549591 26.001934 25.359606 26.001953 24.003906 A 0.50005 0.50005 0 0 0 25.501953 23.503906 L 23.001953 23.503906 A 0.50005 0.50005 0 1 0 23.001953 24.503906 L 24.832031 24.503906 C 24.645416 25.171906 24.21622 25.748847 23.519531 25.935547 C 22.642596 26.170447 21.723468 25.790106 21.269531 25.003906 C 20.815608 24.217706 20.944011 23.229791 21.585938 22.587891 C 22.227899 21.945891 23.215728 21.817584 24.001953 22.271484 A 0.5005087 0.5005087 0 0 0 24.501953 21.404297 C 24.061697 21.150122 23.576352 21.018119 23.091797 21.003906 z " transform="translate(0,1020.3622)" id="rect4325"/>
  </g>

	<metadata>
		<rdf:RDF xmlns:rdf="http://www.w3.org/1999/02/22-rdf-syntax-ns#" xmlns:rdfs="http://www.w3.org/2000/01/rdf-schema#" xmlns:dc="http://purl.org/dc/elements/1.1/">
			<rdf:Description about="https://iconscout.com/legal#licenses" dc:title="20 google my business shop store suit service marketplace" dc:description="20 google my business shop store suit service marketplace" dc:publisher="Iconscout" dc:date="2017-02-19" dc:format="image/svg+xml" dc:language="en">
				<dc:creator>
					<rdf:Bag>
						<rdf:li>Iconscout Store</rdf:li>
					</rdf:Bag>
				</dc:creator>
			</rdf:Description>
		</rdf:RDF>
    </metadata></svg>
