<svg xmlns="http://www.w3.org/2000/svg" width="24.096" height="24.101" viewBox="0 0 24.096 24.101"><defs><style>.a{fill:#f3eeee}</style></defs><path class="a" d="M24.035 7.086a8.807 8.807 0 0 0-.56-2.924A6.174 6.174 0 0 0 19.951.636a8.829 8.829 0 0 0-2.924-.56C15.734.014 15.325 0 12.051 0s-3.68.014-4.966.071a8.809 8.809 0 0 0-2.924.56 5.88 5.88 0 0 0-2.137 1.394A5.934 5.934 0 0 0 .635 4.157a8.83 8.83 0 0 0-.56 2.924C.014 8.371 0 8.781 0 12.053s.014 3.682.071 4.967a8.806 8.806 0 0 0 .56 2.924 6.173 6.173 0 0 0 3.526 3.526 8.83 8.83 0 0 0 2.924.56c1.285.057 1.695.071 4.967.071s3.682-.014 4.967-.071a8.8 8.8 0 0 0 2.924-.56 6.165 6.165 0 0 0 3.527-3.526 8.836 8.836 0 0 0 .56-2.924c.056-1.285.071-1.695.071-4.967s0-3.682-.061-4.967zm-2.17 9.84a6.606 6.606 0 0 1-.414 2.236 4 4 0 0 1-2.288 2.288 6.629 6.629 0 0 1-2.236.414c-1.271.057-1.652.071-4.868.071s-3.6-.014-4.868-.071a6.6 6.6 0 0 1-2.24-.414 3.709 3.709 0 0 1-1.384-.9 3.747 3.747 0 0 1-.9-1.384 6.63 6.63 0 0 1-.416-2.235c-.057-1.271-.071-1.653-.071-4.868s.014-3.6.071-4.868a6.6 6.6 0 0 1 .414-2.236 3.663 3.663 0 0 1 .9-1.384 3.741 3.741 0 0 1 1.384-.9 6.634 6.634 0 0 1 2.245-.415c1.271-.06 1.657-.071 4.868-.071s3.6.014 4.868.071a6.606 6.606 0 0 1 2.236.414 3.706 3.706 0 0 1 1.384.9 3.746 3.746 0 0 1 .9 1.384 6.633 6.633 0 0 1 .414 2.236c.056 1.271.071 1.652.071 4.868s-.014 3.592-.071 4.864zm0 0"/><path class="a" d="M12.052 5.862a6.191 6.191 0 1 0 6.191 6.191 6.193 6.193 0 0 0-6.191-6.191zm0 10.207a4.016 4.016 0 1 1 4.016-4.016 4.017 4.017 0 0 1-4.016 4.016zm7.882-10.452a1.445 1.445 0 1 1-1.441-1.447 1.445 1.445 0 0 1 1.441 1.447zm0 0"/></svg>