<?xml version="1.0" encoding="utf-8"?>
<!-- Generator: Adobe Illustrator 16.0.0, SVG Export Plug-In . SVG Version: 6.00 Build 0)  -->
<!DOCTYPE svg PUBLIC "-//W3C//DTD SVG 1.1//EN" "http://www.w3.org/Graphics/SVG/1.1/DTD/svg11.dtd">
<svg version="1.1" id="Camada_1" xmlns="http://www.w3.org/2000/svg" xmlns:xlink="http://www.w3.org/1999/xlink" x="0px" y="0px"
	 width="66px" height="59.667px" viewBox="0 0 66 59.667" enable-background="new 0 0 66 59.667" xml:space="preserve">
<g id="Camada_x0020_1_4_" opacity="0.5">
	<path fill="none" stroke="#637585" stroke-width="1.99" stroke-miterlimit="22.9256" d="M42.069,4.284L42.069,4.284
		c0.768-0.383,1.71-0.072,2.093,0.695l4.485,8.925c0.083,0.171,0.137,0.353,0.153,0.535c-0.546-0.24-1.197-0.24-1.771,0.055
		c-0.469,0.241-0.808,0.642-0.982,1.103c-0.073-0.087-0.137-0.188-0.191-0.293l-4.48-8.923C40.989,5.614,41.3,4.672,42.069,4.284z
		 M39.333,27.121L39.333,27.121c-0.679-0.527-0.802-1.512-0.274-2.188l6.125-7.888c0.193-0.252,0.455-0.427,0.736-0.524
		c0.025,0.253,0.096,0.508,0.219,0.748c0.357,0.696,1.057,1.099,1.788,1.114c-0.052,0.205-0.145,0.401-0.281,0.576l-6.122,7.887
		C40.997,27.524,40.011,27.648,39.333,27.121L39.333,27.121z M60.633,18.33L60.633,18.33c-0.133,0.848-0.939,1.432-1.786,1.298
		l-9.784-1.556c0.901-0.563,1.234-1.728,0.74-2.688c-0.075-0.146-0.164-0.279-0.265-0.397l9.799,1.555
		C60.184,16.681,60.766,17.483,60.633,18.33z"/>
</g>
<g id="Camada_x0020_1_5_" opacity="0.5">
	<path fill="none" stroke="#637585" stroke-width="1.99" stroke-miterlimit="22.9256" d="M8.679,32.139L8.679,32.139
		c0.768-0.383,1.71-0.072,2.093,0.695l4.485,8.925c0.083,0.171,0.137,0.353,0.153,0.535c-0.546-0.24-1.197-0.24-1.771,0.055
		c-0.469,0.241-0.808,0.642-0.982,1.103c-0.073-0.087-0.137-0.188-0.191-0.293l-4.48-8.923C7.599,33.469,7.91,32.526,8.679,32.139z
		 M5.943,54.975L5.943,54.975c-0.679-0.527-0.802-1.512-0.274-2.188l6.125-7.888c0.193-0.252,0.455-0.427,0.736-0.524
		c0.025,0.253,0.096,0.508,0.219,0.748c0.357,0.696,1.057,1.099,1.788,1.114c-0.052,0.205-0.145,0.401-0.281,0.576L8.134,54.7
		C7.607,55.379,6.621,55.502,5.943,54.975L5.943,54.975z M27.243,46.185L27.243,46.185c-0.133,0.848-0.939,1.432-1.786,1.298
		l-9.784-1.556c0.901-0.563,1.234-1.728,0.74-2.688c-0.075-0.146-0.164-0.279-0.265-0.397l9.799,1.555
		C26.794,44.535,27.376,45.338,27.243,46.185z"/>
</g>
<g id="Camada_x0020_1_7_" opacity="0.5">
	<circle fill="#637585" stroke="#637585" stroke-width="0.63" stroke-miterlimit="22.9256" cx="17.923" cy="14.289" r="2.495"/>
	<path fill="none" stroke="#637585" stroke-width="1.58" stroke-miterlimit="22.9256" d="M17.759,15.179L17.759,15.179
		c1.039-0.098,2.097,2.131,2.364,4.977l0.515,5.486c0.267,2.846-0.358,5.232-1.396,5.33l0,0c-1.039,0.097-2.097-2.131-2.364-4.977
		l-0.515-5.486C16.095,17.663,16.721,15.276,17.759,15.179z"/>
	<path fill="none" stroke="#637585" stroke-width="1.58" stroke-miterlimit="22.9256" d="M17.627,14.479L17.627,14.479
		c-0.586-0.863,0.857-2.864,3.223-4.469l4.56-3.093c2.365-1.605,4.757-2.207,5.343-1.343l0,0c0.585,0.863-0.857,2.864-3.223,4.469
		l-4.559,3.093C20.604,14.741,18.212,15.342,17.627,14.479z"/>
	<path fill="none" stroke="#637585" stroke-width="1.58" stroke-miterlimit="22.9256" d="M17.631,14.021L17.631,14.021
		c-0.359,0.979-2.826,0.975-5.51-0.009l-5.172-1.897C4.265,11.129,2.381,9.538,2.74,8.559l0,0c0.359-0.979,2.826-0.975,5.51,0.009
		l5.172,1.897C16.106,11.45,17.991,13.041,17.631,14.021z"/>
</g>
<g id="Camada_x0020_1_8_" opacity="0.5">
	<circle fill="#637585" stroke="#637585" stroke-width="0.63" stroke-miterlimit="22.9256" cx="49.85" cy="43.303" r="2.495"/>
	<path fill="none" stroke="#637585" stroke-width="1.58" stroke-miterlimit="22.9256" d="M48.96,43.469L48.96,43.469
		c0.463,0.935-1.239,2.721-3.801,3.988l-4.938,2.444c-2.562,1.268-5.014,1.538-5.477,0.604l0,0c-0.462-0.935,1.24-2.72,3.801-3.988
		l4.938-2.444C46.045,42.804,48.498,42.534,48.96,43.469z"/>
	<path fill="none" stroke="#637585" stroke-width="1.58" stroke-miterlimit="22.9256" d="M49.566,43.095L49.566,43.095
		c0.596-0.855,2.98-0.225,5.326,1.41l4.52,3.151c2.345,1.633,3.763,3.652,3.167,4.508l0,0c-0.596,0.855-2.981,0.225-5.326-1.41
		l-4.52-3.15C50.388,45.969,48.97,43.951,49.566,43.095z"/>
	<path fill="none" stroke="#637585" stroke-width="1.58" stroke-miterlimit="22.9256" d="M49.996,42.935L49.996,42.935
		c-1.043,0.015-1.922-2.29-1.963-5.148l-0.079-5.509c-0.042-2.858,0.771-5.188,1.813-5.203l0,0c1.043-0.015,1.922,2.29,1.963,5.148
		l0.08,5.509C51.851,40.591,51.039,42.92,49.996,42.935z"/>
</g>
</svg>
