<svg xmlns="http://www.w3.org/2000/svg" width="54" height="54" viewBox="0 0 54 54"><defs><style>.a{fill:#aec700}</style></defs><path class="a" d="M51.22 21h-5.052a1.94 1.94 0 0 1-1.368-3.311l3.572-3.571a2.782 2.782 0 0 0 0-3.933l-4.557-4.553a2.847 2.847 0 0 0-3.933 0L36.311 9.2A1.939 1.939 0 0 1 33 7.832V2.78A2.783 2.783 0 0 0 30.22 0h-6.44A2.783 2.783 0 0 0 21 2.78v5.052A1.939 1.939 0 0 1 17.689 9.2l-3.571-3.568a2.847 2.847 0 0 0-3.933 0l-4.553 4.553a2.782 2.782 0 0 0 0 3.933L9.2 17.689A1.94 1.94 0 0 1 7.832 21H2.78A2.783 2.783 0 0 0 0 23.78v6.439A2.783 2.783 0 0 0 2.78 33h5.052A1.94 1.94 0 0 1 9.2 36.311l-3.568 3.571a2.782 2.782 0 0 0 0 3.933l4.553 4.553a2.845 2.845 0 0 0 3.933 0l3.571-3.568A1.94 1.94 0 0 1 21 46.168v5.052A2.783 2.783 0 0 0 23.78 54h6.439A2.783 2.783 0 0 0 33 51.22v-5.052a1.94 1.94 0 0 1 3.31-1.368l3.571 3.572a2.847 2.847 0 0 0 3.933 0l4.553-4.553a2.782 2.782 0 0 0 0-3.933l-3.572-3.571A1.94 1.94 0 0 1 46.168 33h5.052A2.783 2.783 0 0 0 54 30.22v-6.44A2.783 2.783 0 0 0 51.22 21zm.78 9.22a.781.781 0 0 1-.78.78h-5.052a3.94 3.94 0 0 0-2.786 6.726l3.572 3.574a.78.78 0 0 1 0 1.1L42.4 46.954a.78.78 0 0 1-1.1 0l-3.571-3.572A3.94 3.94 0 0 0 31 46.168v5.052a.781.781 0 0 1-.78.78h-6.44a.781.781 0 0 1-.78-.78v-5.052a3.879 3.879 0 0 0-2.432-3.64 3.985 3.985 0 0 0-1.533-.311 3.885 3.885 0 0 0-2.761 1.164L12.7 46.953a.78.78 0 0 1-1.1 0L7.046 42.4a.78.78 0 0 1 0-1.1l3.572-3.571A3.939 3.939 0 0 0 7.832 31H2.78a.781.781 0 0 1-.78-.78v-6.44a.781.781 0 0 1 .78-.78h5.052a3.94 3.94 0 0 0 2.786-6.726L7.046 12.7a.78.78 0 0 1 0-1.1L11.6 7.046a.78.78 0 0 1 1.1 0l3.571 3.571A3.94 3.94 0 0 0 23 7.832V2.78a.781.781 0 0 1 .78-.78h6.439a.781.781 0 0 1 .781.78v5.052a3.94 3.94 0 0 0 6.726 2.786L41.3 7.047a.78.78 0 0 1 1.1 0l4.554 4.553a.78.78 0 0 1 0 1.1l-3.572 3.571A3.94 3.94 0 0 0 46.168 23h5.052a.78.78 0 0 1 .78.779z"/><path class="a" d="M27 18a9 9 0 1 0 9 9 9.01 9.01 0 0 0-9-9zm0 16a7 7 0 1 1 7-7 7.009 7.009 0 0 1-7 7z"/></svg>